HIERARCHY
ROOT hip
{
	OFFSET 0.000000 0.000000 0.000000 
	CHANNELS 6 Xposition Yposition Zposition Xrotation Zrotation Yrotation
	JOINT abdomen
	{
		OFFSET 0.000000 3.402643 0.000000 
		CHANNELS 3 Xrotation Zrotation Yrotation
		JOINT chest
		{
			OFFSET 0.000000 8.438565 -0.680529 
			CHANNELS 3 Xrotation Zrotation Yrotation
			JOINT neck
			{
				OFFSET 0.000000 10.207942 -0.272212 
				CHANNELS 3 Xrotation Zrotation Yrotation
				JOINT head
				{
					OFFSET 0.000000 3.130431 0.000000 
					CHANNELS 3 Xrotation Zrotation Yrotation
					End Site
					{
						OFFSET 0.000000 3.130435 0.000000 
					}
				}
			}
			JOINT lCollar
			{
				OFFSET 3.470700 6.669187 -0.816635 
				CHANNELS 3 Yrotation Zrotation Xrotation
				JOINT lShldr
				{
					OFFSET 3.198488 0.000000 0.000000 
					CHANNELS 3 Zrotation Yrotation Xrotation
					JOINT lForeArm
					{
						OFFSET 10.139888 0.000000 0.000000 
						CHANNELS 3 Yrotation Zrotation Xrotation
						JOINT lHand
						{
							OFFSET 8.370511 0.000000 0.000000 
							CHANNELS 3 Zrotation Yrotation Xrotation
							End Site
							{
								OFFSET 4.083176 0.000000 0.000000 
							}
						}
					}
				}
			}
			JOINT rCollar
			{
				OFFSET -3.470700 6.669187 -0.816635 
				CHANNELS 3 Yrotation Zrotation Xrotation
				JOINT rShldr
				{
					OFFSET -3.198488 0.000000 0.000000 
					CHANNELS 3 Zrotation Yrotation Xrotation
					JOINT rForeArm
					{
						OFFSET -10.139888 0.000000 0.000000 
						CHANNELS 3 Yrotation Zrotation Xrotation
						JOINT rHand
						{
							OFFSET -8.370511 0.000000 0.000000 
							CHANNELS 3 Zrotation Yrotation Xrotation
							End Site
							{
								OFFSET -4.083176 0.000000 0.000000 
							}
						}
					}
				}
			}
		}
	}
	JOINT lThigh
	{
		OFFSET 5.308129 -1.633274 1.361059 
		CHANNELS 3 Xrotation Zrotation Yrotation
		JOINT lShin
		{
			OFFSET -2.041588 -20.007561 0.000000 
			CHANNELS 3 Xrotation Zrotation Yrotation
			JOINT lFoot
			{
				OFFSET 0.000000 -19.190928 -1.224953 
				CHANNELS 3 Xrotation Yrotation Zrotation
				End Site
				{
					OFFSET 0.000000 -2.449906 4.627600 
				}
			}
		}
	}
	JOINT rThigh
	{
		OFFSET -5.308129 -1.633274 1.361059 
		CHANNELS 3 Xrotation Zrotation Yrotation
		JOINT rShin
		{
			OFFSET 2.041588 -20.007561 0.000000 
			CHANNELS 3 Xrotation Zrotation Yrotation
			JOINT rFoot
			{
				OFFSET 0.000000 -19.190928 -1.224953 
				CHANNELS 3 Xrotation Yrotation Zrotation
				End Site
				{
					OFFSET 0.000000 -2.449906 4.627600 
				}
			}
		}
	}
}
MOTION
Frames: 8
Frame Time: 0.016667
1.843689 49.752083 -1.019504 11.482646 2.444740 -4.154105 8.255935 -1.815896 -1.358287 10.927271 8.535021 0.325943 -8.457032 0.000000 0.000000 -2.330672 -8.291973 21.069504 -2.812533 -0.096698 -0.019508 -81.511864 -0.249022 -10.968933 -58.039108 -40.511505 -1.536711 53.451321 -46.855896 -13.875246 2.792995 0.077173 -0.019521 65.952164 11.059428 -4.571950 57.712578 24.239080 3.746208 -49.167393 43.754166 11.595926 -30.671732 18.318624 10.884513 27.079884 -4.125536 0.898619 3.613981 -8.222219 -20.634010 -3.685071 -24.337540 -28.651381 21.721176 6.618598 10.671682 -13.630420 4.190502 10.893600 
1.914965 49.758850 -0.996971 12.392518 2.369648 -3.069031 8.255935 -1.815896 -1.358287 11.927574 9.287075 -0.157354 -8.457032 0.000000 0.000000 -4.565062 -8.745279 21.135515 -2.812533 -0.096698 -0.019508 -81.199272 -1.375624 -10.353228 -58.369869 -40.622101 -1.662090 52.898834 -46.727112 -13.634807 2.792995 0.077173 -0.019521 63.957535 11.278516 -6.647921 58.343361 24.294920 3.455306 -49.199116 44.547470 12.244447 -32.534523 18.424120 10.242146 28.206568 -4.312093 0.679219 3.736184 -9.645855 -21.559219 -4.287849 -25.253376 -28.067284 22.604925 6.351698 11.068647 -14.736197 4.930255 11.470575 
1.947484 49.645042 -1.003522 13.108479 2.293992 -1.631897 8.255935 -1.815896 -1.358287 12.950080 10.184516 -0.821949 -8.457032 0.000000 0.000000 -6.808644 -9.243774 21.206062 -2.812533 -0.096698 -0.019508 -80.869957 -2.331239 -9.910359 -58.709930 -40.627483 -1.883868 52.194843 -46.698448 -13.290932 2.792995 0.077173 -0.019521 61.641079 11.237739 -9.126777 58.466705 24.297781 3.231889 -49.677929 44.773918 12.173107 -34.545635 18.599569 9.563482 29.185898 -4.395859 0.658339 3.668402 -10.271008 -22.021763 -4.727083 -25.976418 -27.121454 23.447479 6.214478 11.123538 -16.252598 5.235057 12.187792 
1.980060 49.531143 -1.010072 13.820974 2.207020 -0.185409 8.255935 -1.815896 -1.358287 13.974450 11.090177 -1.472792 -8.457032 0.000000 0.000000 -9.068266 -9.739964 21.307135 -2.812533 -0.096698 -0.019508 -80.556976 -3.275640 -9.474685 -59.058147 -40.621265 -2.109715 51.484337 -46.671268 -12.929244 2.792995 0.077173 -0.019521 59.327988 11.098452 -11.600931 58.581043 24.299604 3.006139 -50.166969 44.990440 12.103460 -36.560825 18.758736 8.853732 30.135183 -4.487499 0.655355 3.607057 -10.847866 -22.527485 -5.156664 -26.688011 -26.190611 24.296474 6.068207 11.193290 -17.760366 5.535933 12.884347 
2.032969 49.384644 -1.015300 14.394953 1.991579 1.417197 8.255935 -1.815896 -1.358287 14.753689 12.072812 -2.016838 -8.457032 0.000000 0.000000 -11.237599 -10.273636 21.652025 -2.812533 -0.096698 -0.019508 -80.362755 -3.528244 -9.216962 -59.185093 -40.706547 -2.248376 50.849068 -46.634911 -12.658900 2.792995 0.077173 -0.019521 56.927540 10.787814 -13.905638 57.982262 23.966469 3.204353 -50.753437 44.330479 11.787537 -38.965073 19.092184 8.126317 31.241333 -4.454373 0.727450 3.163655 -11.039083 -22.655994 -5.421598 -27.202627 -25.614977 25.271246 5.691801 11.450468 -19.341980 5.669565 13.130593 
2.085958 49.237888 -1.020527 14.956059 1.765142 3.009392 8.255935 -1.815896 -1.358287 15.518258 13.053946 -2.544261 -8.447267 0.000000 0.000000 -13.425204 -10.793246 22.029303 -2.812533 -0.096698 -0.019508 -80.167938 -3.784221 -8.951428 -59.308411 -40.799934 -2.382934 50.231228 -46.601795 -12.412318 2.792995 0.077173 -0.019521 54.542004 10.382935 -16.195372 57.386818 23.631495 3.402155 -51.342834 43.656265 11.481383 -41.380043 19.400229 7.390379 32.317898 -4.420440 0.832303 2.724409 -11.261261 -22.805853 -5.685565 -27.726130 -25.046627 26.244970 5.297343 11.726809 -20.945675 5.797709 13.372202 
2.170043 48.991730 -1.024192 15.178656 1.596293 4.650438 8.255935 -1.815896 -1.358287 16.306053 13.840279 -2.906120 -8.457032 0.000000 0.000000 -15.433923 -11.118234 22.185095 -2.812533 -0.096698 -0.019508 -79.899452 -3.773368 -8.687211 -59.060303 -40.630886 -2.338843 49.700729 -46.649296 -12.322424 2.792995 0.077173 -0.019521 52.487820 10.087344 -18.417665 55.899879 23.072016 3.867573 -51.575321 42.216610 10.967087 -43.876392 19.872862 6.785176 33.121777 -4.323261 0.890132 2.376717 -11.054239 -22.435249 -5.685256 -28.255114 -24.449499 27.106825 4.955565 11.726384 -22.844414 5.886065 13.854009 
2.254104 48.745354 -1.027808 15.390834 1.417172 6.300999 8.255935 -1.815896 -1.358287 17.083025 14.635359 -3.268559 -8.457032 0.000000 0.000000 -17.442646 -11.432665 22.351189 -2.812533 -0.096698 -0.019508 -79.630936 -3.755430 -8.420693 -58.812649 -40.471355 -2.300773 49.192375 -46.689671 -12.250745 2.792995 0.077173 -0.019521 50.448444 9.712031 -20.616943 54.417488 22.512957 4.320401 -51.781677 40.779530 10.475765 -46.392990 20.320292 6.145175 33.922161 -4.239817 0.925759 2.037301 -10.846224 -22.052456 -5.684998 -28.774355 -23.841877 27.971512 4.604012 11.719138 -24.747055 5.975715 14.302599 
